<?xml version="1.0" encoding="UTF-8"?>
<svg width="32" height="32" viewBox="0 0 32 32" fill="none" xmlns="http://www.w3.org/2000/svg">
  <rect width="32" height="32" rx="8" fill="#7C3AED"/>
  <path d="M24.5 16.5l-2.5-2.5 2.5-2.5c0.2-0.2 0.3-0.4 0.3-0.7s-0.1-0.5-0.3-0.7l-1.5-1.5c-0.2-0.2-0.4-0.3-0.7-0.3s-0.5 0.1-0.7 0.3l-2.5 2.5-2-2c-0.2-0.2-0.4-0.3-0.7-0.3s-0.5 0.1-0.7 0.3l-7 7c-0.2 0.2-0.3 0.4-0.3 0.7s0.1 0.5 0.3 0.7l2 2-2.5 2.5c-0.2 0.2-0.3 0.4-0.3 0.7s0.1 0.5 0.3 0.7l1.5 1.5c0.2 0.2 0.4 0.3 0.7 0.3s0.5-0.1 0.7-0.3l2.5-2.5 2 2c0.2 0.2 0.4 0.3 0.7 0.3s0.5-0.1 0.7-0.3l7-7c0.2-0.2 0.3-0.4 0.3-0.7s-0.1-0.5-0.3-0.7z" fill="#DDD6FE"/>
</svg> 